<?xml version="1.0" standalone="no"?>
<!DOCTYPE svg PUBLIC "-//W3C//DTD SVG 20010904//EN"
 "http://www.w3.org/TR/2001/REC-SVG-20010904/DTD/svg10.dtd">
<svg version="1.0" xmlns="http://www.w3.org/2000/svg"
 width="32.000000pt" height="32.000000pt" viewBox="0 0 32.000000 32.000000"
 preserveAspectRatio="xMidYMid meet">

<g transform="translate(0.000000,32.000000) scale(0.100000,-0.100000)"
fill="#000000" stroke="none">
<path d="M17 193 c-17 -30 -17 -76 2 -118 11 -25 22 -45 24 -45 3 0 22 -7 43
-16 l39 -16 -42 40 c-44 43 -59 83 -48 132 6 27 -6 43 -18 23z"/>
<path d="M80 181 c-19 -36 -12 -86 16 -115 15 -14 30 -26 35 -26 4 0 10 -9 14
-19 5 -16 11 -18 36 -11 69 20 123 84 131 155 2 22 -2 31 -14 33 -15 3 -18 -4
-18 -33 0 -29 -8 -45 -34 -71 -44 -44 -86 -46 -127 -5 -34 34 -37 63 -9 91 20
20 20 20 0 20 -10 0 -24 -9 -30 -19z"/>
<path d="M151 197 c2 -1 12 -9 22 -16 15 -12 17 -12 11 3 -3 9 -13 16 -22 16
-8 0 -13 -1 -11 -3z"/>
<path d="M220 172 c0 -15 -5 -33 -12 -40 -15 -15 -51 -15 -66 0 -6 6 -14 9
-18 6 -3 -4 4 -16 16 -28 26 -26 65 -21 93 12 21 25 23 78 2 78 -10 0 -15 -10
-15 -28z"/>
</g>
</svg>
