<?xml version="1.0" standalone="no"?>
<!DOCTYPE svg PUBLIC "-//W3C//DTD SVG 20010904//EN"
 "http://www.w3.org/TR/2001/REC-SVG-20010904/DTD/svg10.dtd">
<svg version="1.0" xmlns="http://www.w3.org/2000/svg"
 width="256.000000pt" height="256.000000pt" viewBox="0 0 256.000000 256.000000"
 preserveAspectRatio="xMidYMid meet">

<g transform="translate(0.000000,256.000000) scale(0.100000,-0.100000)"
fill="#000000" stroke="none">
<path d="M342 2540 c-18 -11 -37 -32 -42 -46 -6 -16 -10 -471 -10 -1230 0
-1199 0 -1204 20 -1224 12 -12 32 -25 46 -30 34 -13 1814 -13 1848 0 14 5 34
18 46 30 20 20 20 27 20 992 l0 971 -262 265 c-145 145 -275 270 -290 278 -23
12 -136 14 -685 14 -640 0 -659 -1 -691 -20z m1318 -325 c0 -203 -3 -255 -13
-255 -7 0 -17 4 -22 9 -9 9 -45 15 -72 12 -7 -1 -17 -10 -23 -21 -13 -25 3
-60 28 -60 42 -1 47 -14 52 -148 5 -117 7 -132 31 -168 l26 -39 -26 -39 c-23
-36 -26 -50 -29 -150 -3 -146 -5 -152 -46 -166 -76 -25 -43 -102 34 -80 79 23
100 67 100 215 0 115 0 117 29 146 17 16 40 29 54 29 31 0 50 22 45 52 -2 17
-14 26 -43 36 -22 7 -50 24 -62 38 -21 23 -23 35 -23 135 0 73 -5 121 -14 144
l-15 35 255 0 254 0 0 -550 0 -550 -900 0 -900 0 0 815 0 815 640 0 640 0 0
-255z m270 0 l185 -185 -188 0 -187 0 0 185 c0 102 1 185 3 185 1 0 85 -83
187 -185z m250 -1795 l0 -330 -900 0 -900 0 0 330 0 330 900 0 900 0 0 -330z"/>
<path d="M915 1979 c-77 -24 -95 -60 -95 -192 0 -107 -13 -165 -41 -182 -7 -5
-26 -11 -42 -14 -16 -4 -36 -15 -43 -27 -12 -17 -11 -23 2 -42 8 -12 24 -22
35 -22 66 0 89 -52 89 -196 0 -125 12 -153 78 -185 35 -18 48 -19 68 -10 42
19 29 73 -21 83 -34 6 -45 46 -45 164 0 102 -2 114 -25 148 -14 20 -25 39 -25
41 0 2 11 21 25 41 23 34 25 46 26 148 0 61 4 119 8 130 4 10 23 26 42 35 40
19 51 57 23 78 -20 15 -18 15 -59 2z"/>
<path d="M1204 1734 c-34 -51 25 -121 78 -93 30 16 38 28 38 60 0 58 -84 82
-116 33z"/>
<path d="M1230 1440 c-16 -16 -20 -33 -20 -91 0 -81 11 -109 43 -109 39 0 47
18 47 112 0 76 -2 89 -19 98 -26 13 -28 13 -51 -10z"/>
<path d="M720 445 c0 -178 -1 -185 -21 -196 -22 -11 -98 -8 -131 6 -11 4 -20
0 -28 -15 -16 -29 -5 -39 60 -56 66 -17 137 -4 171 32 23 25 24 32 27 220 l4
194 -41 0 -41 0 0 -185z"/>
<path d="M995 623 c-54 -14 -95 -66 -95 -122 0 -38 38 -84 99 -118 95 -54 111
-84 66 -128 -27 -28 -61 -31 -117 -11 -38 14 -48 8 -48 -29 0 -19 57 -39 110
-38 87 1 143 51 142 125 -1 54 -23 83 -85 114 -99 50 -122 93 -71 133 29 23
64 27 94 11 15 -8 21 -6 30 9 16 32 12 39 -27 50 -40 11 -64 12 -98 4z"/>
<path d="M1330 608 c-82 -42 -123 -147 -102 -262 21 -111 81 -169 177 -169
116 0 185 83 185 223 0 78 -16 125 -57 171 -55 61 -128 74 -203 37z m137 -60
c48 -40 66 -190 30 -256 -44 -81 -146 -72 -183 15 -20 45 -18 157 3 200 26 56
106 78 150 41z"/>
<path d="M1690 400 l0 -220 40 0 39 0 3 146 3 146 81 -143 81 -144 42 -3 41
-3 0 220 0 221 -40 0 -39 0 -3 -146 -3 -146 -83 146 -83 146 -40 0 -39 0 0
-220z"/>
</g>
</svg>
