<svg xmlns="http://www.w3.org/2000/svg" viewBox="0 0 24 24" fill="currentColor">
  <title>SQL</title>
  <path d="M12 2c-4.97 0-9 1.79-9 4v12c0 2.21 4.03 4 9 4s9-1.79 9-4V6c0-2.21-4.03-4-9-4Zm0 2c4.05 0 7 .98 7 2s-2.95 2-7 2-7-.98-7-2 2.95-2 7-2Zm0 16c-4.05 0-7-.98-7-2v-2.02C6.61 17.21 9.1 18 12 18s5.39-.79 7-2.02V18c0 1.02-2.95 2-7 2Zm0-4c-4.05 0-7-.98-7-2v-2.02C6.61 13.21 9.1 14 12 14s5.39-.79 7-2.02V14c0 1.02-2.95 2-7 2Zm0-4c-4.05 0-7-.98-7-2V7.98C6.61 9.21 9.1 10 12 10s5.39-.79 7-2.02V10c0 1.02-2.95 2-7 2Z"/>
</svg>
